<?xml version="1.0" encoding="utf-8"?>
<!-- Generator: Adobe Illustrator 19.0.0, SVG Export Plug-In . SVG Version: 6.00 Build 0)  -->
<svg version="1.1" id="Layer_1" xmlns="http://www.w3.org/2000/svg" xmlns:xlink="http://www.w3.org/1999/xlink" x="0px" y="0px"
	 viewBox="0 0 377.8 27" style="enable-background:new 0 0 377.8 27;" xml:space="preserve">
<style type="text/css">
	.st0{fill-rule:evenodd;clip-rule:evenodd;fill:#FFFFFF;}
	.st1{fill-rule:evenodd;clip-rule:evenodd;fill:#ED1C24;}
	.st2{fill-rule:evenodd;clip-rule:evenodd;fill:#F7941E;}
	.st3{fill-rule:evenodd;clip-rule:evenodd;fill:#FFF200;}
	.st4{fill-rule:evenodd;clip-rule:evenodd;fill:#A6CE39;}
	.st5{fill-rule:evenodd;clip-rule:evenodd;fill:#00C0F3;}
</style>
<g id="XMLID_1_">
	<polygon class="st0" points="101.2,4.6 128.8,4.6 128.8,10.3 113.9,10.3 113.9,12.7 129,12.7 129,17.7 113.9,17.7 113.9,19.8 
		128.7,19.8 128.7,26.4 101.2,26.4 101.2,4.6 	"/>
	<polygon class="st0" points="74.6,4.7 80.7,19.5 86.9,4.6 98.5,4.6 90.3,26.4 70.2,26.4 62,4.6 74.6,4.7 	"/>
	<polygon class="st0" points="219,4.6 231.6,4.6 231.6,18.9 242.5,18.9 242.5,26.4 219,26.4 219,4.6 	"/>
	<polygon class="st0" points="203.2,4.6 215.8,4.6 215.8,26.4 203.2,26.4 203.2,4.6 	"/>
	<polygon class="st0" points="167.9,4.6 179.4,4.6 188.2,14.5 188.3,4.6 200.1,4.6 200.1,26.4 187.5,26.4 179.5,16.9 179.4,26.4 
		167.9,26.4 167.9,4.6 	"/>
	<polygon class="st1" points="42.9,26.3 53.6,26.3 53.6,4.5 42.9,4.5 42.9,26.3 	"/>
	<polygon class="st2" points="32.2,26.3 42.9,26.3 42.9,4.5 32.2,4.5 32.2,26.3 	"/>
	<polygon class="st3" points="21.4,26.3 32.2,26.3 32.2,4.5 21.4,4.5 21.4,26.3 	"/>
	<polygon class="st4" points="10.8,26.3 21.4,26.3 21.4,4.5 10.8,4.5 10.8,26.3 	"/>
	<polygon class="st5" points="0,26.3 10.8,26.3 10.8,4.5 0,4.5 0,26.3 	"/>
	<polygon class="st1" points="324.1,26.3 334.9,26.3 334.9,4.5 324.1,4.5 324.1,26.3 	"/>
	<polygon class="st2" points="334.9,26.3 345.6,26.3 345.6,4.5 334.9,4.5 334.9,26.3 	"/>
	<polygon class="st3" points="345.6,26.3 356.3,26.3 356.3,4.5 345.6,4.5 345.6,26.3 	"/>
	<polygon class="st4" points="356.3,26.3 367,26.3 367,4.5 356.3,4.5 356.3,26.3 	"/>
	<polygon class="st5" points="367,26.3 377.8,26.3 377.8,4.5 367,4.5 367,26.3 	"/>
	<path class="st0" d="M148.5,10.9h-3.8v4.6c2.2,0,2.2,0,3.8,0c0.2,0,0.5,0,0.8,0c1.1,0,2.9-0.2,2.9-2.5c0-1.9-1.5-2.2-2.9-2.2H148.5
		L148.5,10.9z M148.5,24l-1.4-1.9h-2.4v4.3h-12.5V4.6h16.3h9.2c1.9,0,7.4,1.4,7.4,6.8c0,4.3-1.3,6.2-4.4,8.7l3.6,6.4h-14L148.5,24
		L148.5,24z"/>
	<path class="st0" d="M281,26.1l0.1,0.3H281h-12.8l-0.8-2.9h-4.1h-4.1l-0.9,2.9h-12.9l7.6-21.9h10.3h9.9L281,26.1L281,26.1z
		 M263.2,11.2l-0.1-0.2l-2.5,6.5h2.5h2.5L263.2,11.2L263.2,11.2z"/>
	<path class="st0" d="M281,16.7c1.1,7.4,11.2,10.3,17.4,10.3c5.5,0,16.7-2.2,16.7-9.5h-12.9c-0.3,4-8.1,4.3-8.1-2
		c-0.1-6.3,6.5-6.1,7.9-2.6h13.3c-0.2-9.1-11.8-9.8-16.7-9.8c-6.6,0-16.6,1.4-17.7,10.8c-0.1,0.5-0.1,1-0.1,1.6
		C280.9,15.9,280.9,16.3,281,16.7L281,16.7L281,16.7z"/>
	<path class="st0" d="M317.9,6.4c-0.9,0-1.6-0.4-2.3-0.9c-0.5-0.7-0.9-1.4-0.9-2.3c0-0.9,0.4-1.7,0.9-2.3c0.7-0.6,1.4-0.9,2.3-0.9
		c0.8,0,1.6,0.3,2.2,0.9c0.7,0.6,1,1.4,1,2.3c0,0.9-0.3,1.6-1,2.3C319.6,6,318.8,6.4,317.9,6.4L317.9,6.4L317.9,6.4z M317.9,0.4
		c-0.8,0-1.5,0.2-2,0.8c-0.5,0.6-0.8,1.3-0.8,2c0,0.8,0.3,1.4,0.8,2c0.5,0.5,1.2,0.8,2,0.8c0.8,0,1.4-0.2,2-0.8
		c0.5-0.5,0.8-1.2,0.8-2c0-0.8-0.3-1.4-0.8-2C319.4,0.6,318.7,0.4,317.9,0.4L317.9,0.4L317.9,0.4z M317.9,1.3h-1.5v0.2
		c0.2,0,0.3,0,0.4,0.1c0.1,0.1,0.1,0.2,0.1,0.4v2c0,0.2,0,0.4-0.1,0.4c-0.1,0.1-0.2,0.2-0.4,0.2v0.1h1.4V4.6c-0.1,0-0.2-0.1-0.3-0.1
		c-0.1-0.1-0.1-0.3-0.1-0.5V3.1h0.3l0.2,0.2l1.1,1.3h0.8V4.6c-0.1,0-0.2-0.1-0.3-0.1c0-0.1-0.1-0.1-0.2-0.3l-0.9-1.1
		c0.3-0.1,0.5-0.2,0.7-0.3c0.2-0.2,0.2-0.4,0.2-0.6c0-0.2-0.1-0.4-0.2-0.6c-0.2-0.2-0.5-0.2-0.9-0.2H317.9L317.9,1.3z M317.9,2.9
		c-0.1,0-0.2,0-0.3,0c-0.1,0-0.1,0-0.2,0V1.6c0.2-0.1,0.3-0.1,0.4-0.1c0.1,0,0.1,0,0.1,0c0.2,0,0.4,0.1,0.5,0.2
		c0.2,0.2,0.2,0.3,0.2,0.5c0,0.2,0,0.4-0.2,0.5C318.3,2.8,318.2,2.8,317.9,2.9L317.9,2.9L317.9,2.9z"/>
</g>
</svg>
